<svg version="1" xmlns="http://www.w3.org/2000/svg" width="426.667" height="426.667" viewBox="0 0 320.000000 320.000000"><path d="M140.9 8.5c-37.3 5.1-70.6 22.6-94.4 49.6-6.9 7.8-8.5 9.9-13.7 17.5C19.8 95 12.5 114.9 8.3 142c-1.4 9.4-.8 34 1.2 44 .3 1.4.8 4.1 1.1 6 1.7 9.4 8.6 28.4 14.2 38.9 15 28.3 37.9 50.8 66.7 65.4 8.2 4.1 23.2 9.9 28.8 11.2 1.2.2 4.2.9 6.7 1.5 13.7 3.4 41 4.6 53.5 2.5 26.7-4.5 49.1-13.3 67.9-26.6 8.3-6 23.2-19.7 30.5-28.2 10.2-12 21.5-32.8 26.9-49.7 4.4-13.8 7.4-30.2 6-32.5-.5-.8-64.2-1.3-77.5-.6-1.8.1-2.3.7-2.3 3 0 6.1-4.2 15.3-10.5 23.2l-4.3 5.4 16.5 16.6 16.4 16.5-5.3 5.6-5.3 5.6-16.7-16.6-16.7-16.5-3.5 2.7c-5.4 4.1-17.2 9.4-25.1 11.2-3.8.9-7.6 1.8-8.2 2-1 .3-1.3 5.8-1.3 23.4v23h-7.5c-5.3 0-7.5-.4-7.6-1.3-.1-.6-.2-11.1-.3-23.1l-.1-21.9-2.4-.4c-10.5-1.6-22.7-6.4-30.4-11.9l-5-3.6-16.1 16.1C89.7 241.8 82 249 81.5 249c-1.3 0-10.5-9.2-10.5-10.4 0-.4 7.2-7.9 16-16.7 8.8-8.7 16-16.2 16-16.6 0-.4-.9-1.6-1.9-2.7-4.9-5.3-13.1-26-13.1-33 0-2.1-.1-2.1-23.5-2l-23.5.1v-15.4l21.3-.1c11.6 0 22.2-.1 23.3-.1 1.7-.1 2.3-.9 2.8-4.3 1.5-9.4 10.1-29.1 13.6-31.3.6-.3 1-1 1-1.5s-6.6-7.6-14.8-15.7c-8.1-8.2-15.3-15.7-16.1-16.6-1.3-1.6-.9-2.3 4-7.3l5.4-5.4L98 86.5l16.6 16.5 3.4-2.6c8.8-6.6 22.9-11.8 33.6-12.3.7-.1 1-7.8 1-23.6l-.1-23.5H168v23.5c0 22.8.1 23.5 2 23.5 2.7 0 2.1-.1 10.2 2.1 7.9 2.2 19.6 7.7 23 10.9 1.2 1.1 2.4 2 2.7 2 .4 0 8-7.4 17-16.4l16.3-16.4 5.6 5.5 5.5 5.5-16.6 16.6-16.6 16.7 2.5 3c7.3 8.8 10.3 15.1 12.8 26.5l.5 2.5h39.8c34.1-.1 39.8-.3 39.8-1.5-.2-5.6-4.3-26.3-6.2-31-.4-.8-.7-1.7-.8-2-1.3-5-8.8-21.7-13.3-29.5-11.4-19.9-32.5-41-53.7-53.8-10.7-6.4-33-15.5-42-17.1-5.2-1-7.6-1.5-9.5-2.1-6.2-2-34.4-2.6-46.1-1z"/><path d="M158.8 114.5c-.2.1-2.9.5-6 .8-12.7 1.1-27.9 12.2-34 24.7-8.1 16.8-5.2 36.7 7.5 50.6C155 222 208 200.2 205.5 158c-.5-7.4-.7-8.8-2.9-14.8-4.4-12.3-17.3-23.7-30.6-27-4.4-1.1-12.7-2.2-13.2-1.7z"/></svg>