<svg width="24" height="24" viewBox="0 0 24 24" fill="none" xmlns="http://www.w3.org/2000/svg">
<path d="M14.625 1.875H9.375C9.168 1.875 9 2.043 9 2.25V21.75C9 21.957 9.168 22.125 9.375 22.125H14.625C14.832 22.125 15 21.957 15 21.75V2.25C15 2.043 14.832 1.875 14.625 1.875Z" fill="currentColor"/>
<path d="M6 15.375H0.75C0.543 15.375 0.375 15.543 0.375 15.75V21.75C0.375 21.957 0.543 22.125 0.75 22.125H6C6.207 22.125 6.375 21.957 6.375 21.75V15.75C6.375 15.543 6.207 15.375 6 15.375Z" fill="currentColor"/>
<path d="M23.25 9.375H18C17.793 9.375 17.625 9.543 17.625 9.75V21.75C17.625 21.957 17.793 22.125 18 22.125H23.25C23.457 22.125 23.625 21.957 23.625 21.75V9.75C23.625 9.543 23.457 9.375 23.25 9.375Z" fill="currentColor"/>
</svg>
