<svg width="24" height="24" viewBox="0 0 24 24" fill="none" xmlns="http://www.w3.org/2000/svg">
<g clip-path="url(#clip0)">
<path d="M15.292 8.292L10 13.586L8.70804 12.292C8.52027 12.1042 8.26559 11.9987 8.00004 11.9987C7.73449 11.9987 7.47982 12.1042 7.29204 12.292C7.10427 12.4798 6.99878 12.7344 6.99878 13C6.99878 13.2655 7.10427 13.5202 7.29204 13.708L9.29204 15.708C9.38493 15.8011 9.49528 15.875 9.61677 15.9254C9.73827 15.9758 9.86851 16.0018 10 16.0018C10.1316 16.0018 10.2618 15.9758 10.3833 15.9254C10.5048 15.875 10.6152 15.8011 10.708 15.708L16.708 9.708C16.801 9.61502 16.8748 9.50464 16.9251 9.38316C16.9754 9.26169 17.0013 9.13148 17.0013 9C17.0013 8.86851 16.9754 8.73831 16.9251 8.61683C16.8748 8.49535 16.801 8.38497 16.708 8.292C16.6151 8.19902 16.5047 8.12527 16.3832 8.07495C16.2617 8.02463 16.1315 7.99873 16 7.99873C15.8686 7.99873 15.7384 8.02463 15.6169 8.07495C15.4954 8.12527 15.385 8.19902 15.292 8.292Z" fill="currentColor"/>
<path d="M12 0C9.62663 0 7.30655 0.703788 5.33316 2.02236C3.35977 3.34094 1.8217 5.21509 0.913451 7.4078C0.00519943 9.60051 -0.232441 12.0133 0.230582 14.3411C0.693605 16.6689 1.83649 18.8071 3.51472 20.4853C5.19295 22.1635 7.33115 23.3064 9.65892 23.7694C11.9867 24.2324 14.3995 23.9948 16.5922 23.0866C18.7849 22.1783 20.6591 20.6402 21.9776 18.6668C23.2962 16.6935 24 14.3734 24 12C23.9968 8.81838 22.7315 5.76798 20.4818 3.51823C18.232 1.26848 15.1816 0.00317686 12 0V0ZM12 20C10.4178 20 8.87104 19.5308 7.55544 18.6518C6.23985 17.7727 5.21447 16.5233 4.60897 15.0615C4.00347 13.5997 3.84504 11.9911 4.15372 10.4393C4.46241 8.88743 5.22433 7.46197 6.34315 6.34315C7.46197 5.22433 8.88743 4.4624 10.4393 4.15372C11.9911 3.84504 13.5997 4.00346 15.0615 4.60896C16.5233 5.21447 17.7727 6.23984 18.6518 7.55544C19.5308 8.87103 20 10.4177 20 12C20 14.1217 19.1572 16.1566 17.6569 17.6569C16.1566 19.1571 14.1217 20 12 20Z" fill="currentColor"/>
</g>
<defs>
<clipPath id="clip0">
<rect width="24" height="24" fill="white"/>
</clipPath>
</defs>
</svg>
