<svg width="600" height="600" viewBox="0 0 960 855" fill="none" xmlns="http://www.w3.org/2000/svg">
<path d="M690.636 468.444H690.183L690.139 468.896C688.005 490.914 683.126 506.98 675.513 521.569C667.894 536.17 657.528 549.311 644.378 565.485L644.096 565.832L644.41 566.151L742.25 665.602L709.916 698.468L612.087 599.029L611.769 598.705L611.416 598.991C578.454 625.657 540.932 641.501 498.811 646.444L498.369 646.496V646.941V787.28H453.499V646.941V646.495L453.057 646.444C410.339 641.473 372.792 625.656 340.456 598.994L340.102 598.702L339.781 599.029L241.898 698.496L209.564 665.629L307.405 566.179L307.722 565.856L307.432 565.508C294.009 549.393 283.64 531.716 276.322 512.474L275.854 512.652L276.321 512.474C268.998 493.244 263.807 472.748 260.752 451.011L260.692 450.581H260.257H122.199V404.956H260.257H260.692L260.752 404.525C263.807 382.789 268.997 362.625 276.32 344.003L276.321 343.998C283.64 324.782 294.012 306.772 307.438 290.021L307.716 289.675L307.405 289.358L209.564 189.907L241.898 157.041L339.727 256.48L340.051 256.81L340.405 256.512C372.141 229.855 409.656 214.341 452.995 210.002L453.445 209.957V209.504V68.2287H498.315V209.504V209.949L498.757 210.001C541.478 214.972 579.027 230.488 611.363 256.519L611.716 256.803L612.033 256.48L709.862 157.041L742.196 189.907L644.356 289.358L644.045 289.674L644.321 290.02C657.472 306.499 667.839 319.798 675.459 334.405C683.073 348.998 687.951 364.913 690.085 386.614L690.129 387.065H690.582H928.355H928.9L928.853 386.522C908.388 150.558 713.434 -34.527 475.907 -34.527C224.718 -34.527 21.0909 172.464 21.0909 427.768C21.0909 683.073 224.718 890.063 475.907 890.063C713.434 890.063 908.388 704.978 928.907 468.987L928.955 468.444H928.409H690.636Z" stroke="url(#paint0_linear)"/>
<path d="M571.289 525.662L571.289 525.662C598.026 498.458 611.427 465.827 611.4 427.767C611.427 389.708 598.026 357.049 571.289 329.872C545.201 303.354 513.419 290.089 475.974 290.088C437.849 289.426 405.387 302.692 378.647 329.872L378.647 329.872C351.91 357.076 338.536 389.708 338.536 427.767C338.509 465.827 351.911 498.486 378.647 525.662L378.647 525.663C405.411 552.839 437.518 566.437 474.968 566.437C512.419 566.465 544.553 552.839 571.289 525.662Z" stroke="url(#paint1_linear)"/>
<defs>
<linearGradient id="paint0_linear" x1="475" y1="-34.027" x2="335.932" y2="897.826" gradientUnits="userSpaceOnUse">
<stop offset="0.204206" stop-color="#5B24DE"/>
<stop offset="1" stop-color="#CD52AD"/>
</linearGradient>
<linearGradient id="paint1_linear" x1="474.968" y1="290.565" x2="433.722" y2="568.467" gradientUnits="userSpaceOnUse">
<stop offset="0.204206" stop-color="#5B24DE"/>
<stop offset="1" stop-color="#CD52AD"/>
</linearGradient>
</defs>
</svg>
