<svg width="23" height="24" viewBox="0 0 23 24" fill="none" xmlns="http://www.w3.org/2000/svg">
<g clip-path="url(#clip0)">
<path d="M21.6267 12.481C21.1733 12.481 20.8 12.7477 20.6133 13.121H15.6267L14.2933 11.7877C14.2133 11.7077 14.1067 11.6543 14 11.6543C13.7333 11.6277 13.4667 11.8143 13.4133 12.081L12.48 18.721L11.1467 0.507667C11.12 0.267667 10.96 0.0810003 10.72 0.027667C10.4533 -0.0256664 10.1867 0.187667 10.1333 0.454334L8.37333 12.2677L8.16 11.921L8.13333 11.8943C8.08 11.841 8.02666 11.7877 7.94666 11.7343C7.73333 11.6543 7.49333 11.7343 7.41333 11.9477L6.66666 13.5743L0 13.8943L6.93333 14.241C7.04 14.241 7.17333 14.1877 7.22666 14.081L7.25333 14.0543L7.84 12.9877L8.29333 13.7877C8.37333 13.8943 8.48 14.001 8.61333 14.0277C8.85333 14.0543 9.09333 13.8943 9.14666 13.6543V13.6277L10.48 5.01433L11.84 23.5477C11.8667 23.7877 12.0267 23.9743 12.2667 24.0277C12.5333 24.0543 12.8 23.8677 12.8533 23.601L14.32 13.2543L15.0933 14.0277C15.1733 14.1077 15.3067 14.1877 15.4667 14.1877H20.64C20.8267 14.561 21.2267 14.8277 21.6533 14.8277C22.2933 14.8277 22.8 14.321 22.8 13.681C22.7733 12.9877 22.2667 12.481 21.6267 12.481Z" fill="black"/>
</g>
<defs>
<clipPath id="clip0">
<rect width="22.7733" height="24" fill="white"/>
</clipPath>
</defs>
</svg>
