<svg width="64" height="64" viewBox="0 0 64 64" fill="currentColor" xmlns="http://www.w3.org/2000/svg">
<path d="M46.5271 34.7236C46.2389 37.6438 45.2082 38.991 43.4369 41.1302L50.0515 47.7316L47.826 49.9527L41.2114 43.3513C38.9859 45.119 36.452 46.1695 33.6081 46.4972V55.813H30.5179V46.4972C27.6338 46.1677 25.0982 45.119 22.9146 43.3513L16.2963 49.9545L14.0708 47.7334L20.6854 41.132C19.7788 40.0633 19.0783 38.8909 18.5839 37.6147C18.0895 36.3403 17.7393 34.9821 17.5332 33.5421H8.19869V30.458H17.5332C17.7393 29.018 18.0895 27.6817 18.5839 26.4473C19.0783 25.1729 19.7788 23.9786 20.6854 22.8681L14.0708 16.2667L16.2963 14.0456L22.9109 20.647C25.0544 18.8792 27.5882 17.8506 30.5142 17.563V8.18522H33.6044V17.563C36.4885 17.8925 39.0242 18.9211 41.2077 20.647L47.8223 14.0456L50.0478 16.2667L43.4333 22.8681C45.2046 25.0473 46.2353 26.3963 46.5235 29.2747H62.5418C61.1646 13.6833 48.0449 1.45459 32.0612 1.45459C15.158 1.45459 1.45459 15.1307 1.45459 32C1.45459 48.8694 15.158 62.5455 32.0612 62.5455C48.0449 62.5455 61.1646 50.3168 62.5455 34.7236H46.5271Z" fill="currentColor"/>
<path d="M38.4628 38.452C36.6678 40.2435 34.5116 41.141 31.9979 41.1392C29.4841 41.1392 27.3297 40.2435 25.5329 38.452C23.7378 36.6606 22.8385 34.5087 22.8403 31.9999C22.8403 29.4912 23.7378 27.3411 25.5329 25.5479C27.3279 23.7564 29.506 22.8825 32.0653 22.9262C34.5791 22.9262 36.7116 23.8001 38.4628 25.5479C40.2579 27.3393 41.1572 29.4912 41.1554 31.9999C41.1572 34.5087 40.2579 36.6588 38.4628 38.452Z" fill="currentColor"/>
</svg>
