<svg width="52" height="84" viewBox="0 0 52 84" fill="none" xmlns="http://www.w3.org/2000/svg">
<path d="M0.0233667 42.4368C0.0275353 42.6065 0.0633866 42.7678 0.130918 42.9232C0.152595 42.9753 0.169268 43.0257 0.199282 43.0735C0.303497 43.2491 0.43606 43.4095 0.622813 43.5238C0.625315 43.5255 0.630316 43.5255 0.632817 43.5271C0.636152 43.5288 0.636987 43.533 0.640321 43.5347L25.4485 58.1801C25.4677 58.1919 25.4902 58.186 25.511 58.1977C25.6895 58.2901 25.8862 58.359 26.1038 58.359C26.3214 58.359 26.5182 58.2901 26.6983 58.1944C26.7208 58.1851 26.7466 58.1885 26.7683 58.1767L51.1355 43.5288C51.3264 43.4146 51.4598 43.2508 51.5682 43.0718C51.5973 43.0223 51.6157 42.9761 51.6365 42.9232C51.7049 42.7669 51.7407 42.6065 51.7466 42.4368C51.7466 42.4007 51.7699 42.3713 51.7674 42.3369C51.7674 42.3209 51.7549 42.31 51.7516 42.294C51.7366 42.1017 51.689 41.9135 51.5848 41.7371L27.2168 0.63672C27.2077 0.61992 27.1918 0.6132 27.181 0.59724C27.1518 0.5502 27.116 0.51324 27.0801 0.47124C27.0351 0.41832 26.9892 0.37128 26.9367 0.32424C26.8967 0.29148 26.8608 0.25536 26.8183 0.22848C26.8016 0.21672 26.7933 0.19992 26.7766 0.18984C26.7483 0.1722 26.7174 0.1722 26.6891 0.15792C26.6324 0.12768 26.5757 0.10584 26.5132 0.084C26.4615 0.06552 26.4098 0.04704 26.3539 0.03612C26.2989 0.02352 26.2456 0.021 26.1905 0.01848C26.1605 0.01512 26.1338 0 26.1038 0C26.0738 0 26.0505 0.01512 26.0204 0.0168C25.9671 0.02184 25.9171 0.02268 25.8654 0.0336C25.8062 0.04452 25.752 0.06384 25.6936 0.08316C25.6328 0.10416 25.5761 0.12684 25.5194 0.15708C25.4935 0.17136 25.4644 0.17136 25.4385 0.18564C25.4235 0.19488 25.4143 0.21084 25.4002 0.22008C25.3543 0.25032 25.3151 0.28728 25.2718 0.32508C25.2201 0.37044 25.1734 0.41496 25.1284 0.46788C25.0959 0.5082 25.06 0.54432 25.0333 0.58716C25.0208 0.60396 25.005 0.61236 24.9941 0.62916L0.186777 41.7304C0.0792268 41.9068 0.0317053 42.0991 0.0150309 42.2949C0.0133634 42.3117 0.00169003 42.3226 2.25901e-05 42.3402C-0.000811131 42.3721 0.0216992 42.4024 0.0233667 42.4368ZM27.4011 6.04044L47.2161 39.4649L27.4011 30.3072V6.04044ZM24.8074 30.2996L4.58049 39.4817L24.8074 5.96988V30.2996ZM24.8074 33.1674V54.7705L4.1186 42.5586L24.8074 33.1674ZM27.4011 54.7495V33.1808L47.6872 42.5586L27.4011 54.7495Z" fill="#E1E1E1"/>
<path d="M51.6564 46.9023C51.2454 46.4487 50.5684 46.3588 50.0431 46.662L26.1037 60.9025L2.17341 46.662C1.65067 46.3554 0.973687 46.4487 0.557661 46.9023C0.143302 47.3592 0.0999477 48.0396 0.454279 48.5445L25.0449 83.4507C25.064 83.4776 25.0957 83.486 25.1149 83.5103C25.1658 83.5725 25.2166 83.6271 25.2758 83.6783C25.3042 83.7018 25.3208 83.738 25.3517 83.759C25.3759 83.7766 25.4067 83.769 25.4326 83.7858C25.4742 83.8102 25.5101 83.8455 25.5559 83.8682C25.721 83.9488 25.9036 84 26.0987 84C26.0995 84 26.0995 84 26.1012 84C26.1012 84 26.1012 84 26.1029 84C26.1045 84 26.1045 84 26.1045 84C26.1054 84 26.1054 84 26.107 84C26.3021 84 26.4839 83.948 26.6498 83.8682C26.6956 83.8463 26.7315 83.811 26.7732 83.7858C26.7982 83.7682 26.829 83.7766 26.854 83.759C26.8849 83.7388 26.9016 83.7027 26.9299 83.6783C26.9891 83.6262 27.0408 83.5725 27.09 83.5103C27.1092 83.486 27.1417 83.4776 27.16 83.4507L51.7598 48.5445C52.1158 48.0396 52.0716 47.3592 51.6564 46.9023ZM24.8073 63.1697V78.5938L6.09356 52.0313L24.8073 63.1697ZM27.401 78.5938V63.1697L46.1222 52.0313L27.401 78.5938Z" fill="#E1E1E1"/>
</svg>
