<svg width="52" height="84" viewBox="0 0 52 84" fill="none" xmlns="http://www.w3.org/2000/svg">
<path d="M51.6558 46.9018C51.2449 46.4487 50.5676 46.3583 50.042 46.6617L26.0976 60.9022L2.16224 46.6617C1.63961 46.3553 0.962379 46.4487 0.546466 46.9018C0.131552 47.359 0.0886638 48.0392 0.442738 48.5445L25.0384 83.4504C25.0574 83.4775 25.0893 83.4856 25.1082 83.5097C25.1591 83.572 25.21 83.6262 25.2688 83.6775C25.2967 83.7006 25.3137 83.7367 25.3446 83.7578C25.3685 83.7749 25.3995 83.7679 25.4254 83.785C25.4673 83.8091 25.5032 83.8442 25.5491 83.8674C25.7146 83.9477 25.8972 83.999 26.0917 83.999C26.0927 83.999 26.0926 83.999 26.0936 83.999C26.0936 83.999 26.0936 83.999 26.0956 83.999C26.0976 83.999 26.0976 83.999 26.0976 83.999C26.0986 83.999 26.0986 83.999 26.0996 83.999C26.2951 83.999 26.4766 83.9467 26.6422 83.8674C26.6881 83.8453 26.724 83.8101 26.7659 83.785C26.7908 83.7679 26.8217 83.7759 26.8467 83.7578C26.8776 83.7377 26.8946 83.7016 26.9225 83.6775C26.9813 83.6252 27.0332 83.572 27.0831 83.5097C27.102 83.4856 27.1349 83.4765 27.1529 83.4504L51.7585 48.5445C52.1156 48.0392 52.0707 47.359 51.6558 46.9018ZM24.801 63.1698V78.5937L6.08299 52.0308L24.801 63.1698ZM27.3952 78.5937V63.1698L46.1203 52.0318L27.3952 78.5937Z" fill="currentColor"/>
<path d="M51.7627 42.2934C51.7477 42.1015 51.7008 41.9136 51.5961 41.7368L46.0965 32.4625L44.6902 30.0914L38.8365 20.2194L37.5668 18.0784L27.3036 0.772605L27.2228 0.635968C27.2139 0.619893 27.1979 0.61286 27.1869 0.596785C27.158 0.549565 27.1221 0.512391 27.0862 0.471199C27.0413 0.41795 26.9954 0.37073 26.9426 0.32351C26.9027 0.29136 26.8668 0.255191 26.8249 0.228064C26.8079 0.216008 26.7989 0.199933 26.783 0.189886C26.7541 0.171802 26.7231 0.171802 26.6952 0.157736C26.6384 0.127595 26.5815 0.105492 26.5197 0.0833891C26.4678 0.0653047 26.4159 0.0462157 26.3601 0.0361688C26.3052 0.0231078 26.2514 0.0200938 26.1965 0.0180844C26.1666 0.0150703 26.1397 0 26.1097 0C26.0798 0 26.0569 0.0150703 26.026 0.016075C25.9731 0.0210985 25.9232 0.0221031 25.8714 0.0331547C25.8125 0.0442063 25.7577 0.0632954 25.6998 0.0823845C25.639 0.103483 25.5821 0.126591 25.5253 0.156731C25.4993 0.170797 25.4704 0.170797 25.4445 0.184863C25.4295 0.19491 25.4205 0.20998 25.4056 0.220027C25.3597 0.250167 25.3208 0.287341 25.2779 0.324514C25.2261 0.369725 25.1792 0.414936 25.1343 0.46718C25.1014 0.507368 25.0655 0.543536 25.0395 0.586738C25.0266 0.603818 25.0106 0.611855 24.9996 0.628935L24.9418 0.72438L14.546 17.9447L13.2623 20.0717L7.21516 30.0884L5.78391 32.4595L0.187541 41.7297C0.0798229 41.9066 0.0319481 42.0985 0.0149925 42.2944C0.0139951 42.3115 0.00202637 42.3225 3.15867e-05 42.3396C-0.000965805 42.3717 0.0219742 42.4019 0.023969 42.436C0.0279585 42.6058 0.0638646 42.7676 0.131687 42.9233C0.152632 42.9745 0.169588 43.0258 0.19951 43.073C0.304236 43.2488 0.436889 43.4096 0.623401 43.5231C0.625396 43.5251 0.630383 43.5251 0.633375 43.5271C0.636367 43.5281 0.637365 43.5332 0.640357 43.5342L7.93528 47.8403L10.0777 49.1042L25.4545 58.1795C25.4734 58.1916 25.4964 58.1855 25.5173 58.1976C25.6958 58.29 25.8923 58.3583 26.1097 58.3583C26.3272 58.3583 26.5247 58.29 26.7042 58.1946C26.7271 58.1845 26.7531 58.1885 26.774 58.1765L42.054 48.9936L44.1825 47.7147L51.1463 43.5281C51.3378 43.4146 51.4714 43.2508 51.5791 43.072C51.6091 43.0218 51.627 42.9756 51.648 42.9233C51.7158 42.7666 51.7517 42.6058 51.7577 42.436C51.7577 42.4009 51.7816 42.3707 51.7786 42.3366C51.7786 42.3205 51.7666 42.3094 51.7627 42.2934ZM41.6381 30.0914H37.2257C36.9723 27.8781 36.1694 25.933 34.816 24.2572L36.9384 22.1252L41.6381 30.0914ZM27.4074 5.96986L35.6727 19.9802L33.1164 22.5472C32.2976 21.851 31.3999 21.3135 30.4225 20.9347C29.4779 20.567 28.4716 20.3038 27.4074 20.144V5.96986ZM24.8131 5.96986V20.148C23.7599 20.3088 22.7785 20.57 21.8708 20.9347C20.8944 21.3135 19.9798 21.851 19.13 22.5472L16.4999 19.9059L16.455 19.8617L24.8131 5.96986ZM15.1743 21.9906L15.2252 22.0429L17.4285 24.2542C16.075 25.8989 15.2871 27.8429 15.0666 30.0884H10.3021L15.1743 21.9906ZM3.1458 41.9839L8.87582 32.4595H15.0666C15.319 34.6728 16.1069 36.6179 17.4285 38.2937L9.83431 45.9303L3.1458 41.9839ZM24.0362 54.3115L11.9757 47.1942L19.13 40.0017C20.7986 41.361 21.8319 42.1517 24.0362 42.3727V54.3115ZM26.1137 38.2555C25.6649 38.2555 25.232 38.2163 24.8131 38.142C23.4387 37.8958 22.2239 37.2448 21.1727 36.1899C19.8342 34.8456 19.1649 33.209 19.1649 31.281C19.132 29.3168 19.8012 27.645 21.1727 26.2676C22.2259 25.2127 23.4387 24.5626 24.8131 24.3165C25.232 24.2411 25.6649 24.2019 26.1137 24.2019C26.5606 24.2019 26.9904 24.2401 27.4074 24.3145C28.7847 24.5596 30.0016 25.2106 31.0548 26.2676C32.4272 27.647 33.1134 29.2997 33.1134 31.2287C33.1144 33.1577 32.4272 34.8125 31.0548 36.1899C30.0006 37.2468 28.7847 37.8979 27.4074 38.143C26.9904 38.2173 26.5606 38.2555 26.1137 38.2555ZM28.2093 54.2683V42.3758C30.4454 42.1547 31.4767 41.363 33.1154 40.0047L40.159 47.0877L28.2093 54.2683ZM42.2874 45.8088L34.816 38.2967C36.1694 36.5887 36.9743 34.6447 37.2257 32.4625H43.0375L48.6538 41.9839L42.2874 45.8088Z" fill="currentColor"/>
</svg>
