<svg width="24" height="24" viewBox="0 0 24 24" fill="none" xmlns="http://www.w3.org/2000/svg">
<g clip-path="url(#clip0)">
<path d="M23.847 11.468C23.655 11.163 19.071 4 12 4C4.92901 4 0.345012 11.163 0.153012 11.468C0.0528771 11.6274 -0.000244141 11.8118 -0.000244141 12C-0.000244141 12.1882 0.0528771 12.3726 0.153012 12.532C0.345012 12.837 4.92901 20 12 20C19.071 20 23.655 12.837 23.847 12.532C23.9471 12.3726 24.0003 12.1882 24.0003 12C24.0003 11.8118 23.9471 11.6274 23.847 11.468ZM12 16C11.2089 16 10.4355 15.7654 9.77773 15.3259C9.11993 14.8864 8.60724 14.2616 8.30449 13.5307C8.00174 12.7998 7.92253 11.9956 8.07687 11.2196C8.23121 10.4437 8.61217 9.73098 9.17158 9.17157C9.73099 8.61216 10.4437 8.2312 11.2197 8.07686C11.9956 7.92252 12.7998 8.00173 13.5307 8.30448C14.2617 8.60723 14.8864 9.11992 15.3259 9.77772C15.7654 10.4355 16 11.2089 16 12C16 13.0609 15.5786 14.0783 14.8284 14.8284C14.0783 15.5786 13.0609 16 12 16Z" fill="currentColor"/>
</g>
<defs>
<clipPath id="clip0">
<rect width="24" height="24" fill="white"/>
</clipPath>
</defs>
</svg>
