<svg width="24" height="24" viewBox="0 0 24 24" fill="none" xmlns="http://www.w3.org/2000/svg">
<g clip-path="url(#clip0)">
<path d="M23.847 11.468C22.9177 10.0707 21.8149 8.79686 20.565 7.677L8.76501 19.477C9.81002 19.8167 10.9012 19.9931 12 20C19.071 20 23.655 12.837 23.847 12.532C23.9471 12.3726 24.0003 12.1882 24.0003 12C24.0003 11.8118 23.9471 11.6274 23.847 11.468Z" fill="currentColor"/>
<path d="M22.706 1.293C22.5185 1.10584 22.2644 1.00072 21.9995 1.00072C21.7346 1.00072 21.4805 1.10584 21.293 1.293L17.235 5.351C15.6257 4.48213 13.8288 4.01842 12 4C4.92901 4 0.345012 11.163 0.153012 11.468C0.0528771 11.6274 -0.000244141 11.8118 -0.000244141 12C-0.000244141 12.1882 0.0528771 12.3726 0.153012 12.532C1.46248 14.4862 3.10752 16.1932 5.01201 17.574L2.29301 20.293C2.19527 20.3847 2.11694 20.495 2.06269 20.6175C2.00843 20.7401 1.97935 20.8722 1.97718 21.0062C1.975 21.1402 1.99977 21.2732 2.05002 21.3975C2.10027 21.5217 2.17497 21.6345 2.26969 21.7293C2.3644 21.8241 2.4772 21.8989 2.60138 21.9492C2.72556 21.9995 2.85859 22.0244 2.99257 22.0223C3.12655 22.0203 3.25875 21.9913 3.38131 21.9371C3.50386 21.8829 3.61429 21.8047 3.70601 21.707L22.706 2.707C22.8935 2.51948 22.9988 2.26517 22.9988 2C22.9988 1.73484 22.8935 1.48053 22.706 1.293ZM8.00001 12C8.00001 10.9391 8.42144 9.92172 9.17158 9.17158C9.92173 8.42143 10.9391 8 12 8C12.7105 8.00374 13.4065 8.20228 14.012 8.574L8.57401 14.011C8.20289 13.4056 8.00439 12.7101 8.00001 12Z" fill="currentColor"/>
</g>
<defs>
<clipPath id="clip0">
<rect width="24" height="24" fill="white"/>
</clipPath>
</defs>
</svg>
