<svg width="24" height="24" viewBox="0 0 24 24" fill="none" xmlns="http://www.w3.org/2000/svg">
<path d="M5 1.66667V5H19V1.66667C19 1.48986 18.9263 1.32029 18.795 1.19526C18.6637 1.07024 18.4857 1 18.3 1H5.7C5.51435 1 5.3363 1.07024 5.20503 1.19526C5.07375 1.32029 5 1.48986 5 1.66667Z" fill="currentColor"/>
<path d="M21.625 7H2.375C2.01033 7 1.66059 7.13634 1.40273 7.37904C1.14487 7.62173 1 7.9509 1 8.29412L1 17.3529C1 17.5246 1.07243 17.6891 1.20136 17.8105C1.3303 17.9318 1.50516 18 1.6875 18H3.75V12.1765C3.75 12.0049 3.82243 11.8403 3.95136 11.7189C4.0803 11.5976 4.25516 11.5294 4.4375 11.5294H19.5625C19.7448 11.5294 19.9197 11.5976 20.0486 11.7189C20.1776 11.8403 20.25 12.0049 20.25 12.1765V18H22.3125C22.4948 18 22.6697 17.9318 22.7986 17.8105C22.9276 17.6891 23 17.5246 23 17.3529V8.29412C23 7.9509 22.8551 7.62173 22.5973 7.37904C22.3394 7.13634 21.9897 7 21.625 7Z" fill="currentColor"/>
<path d="M5 13V22.3333C5 22.5101 5.07375 22.6797 5.20503 22.8047C5.3363 22.9298 5.51435 23 5.7 23H18.3C18.4857 23 18.6637 22.9298 18.795 22.8047C18.9263 22.6797 19 22.5101 19 22.3333V13H5Z" fill="currentColor"/>
</svg>
