<svg width="24" height="24" viewBox="0 0 24 24" fill="none" xmlns="http://www.w3.org/2000/svg">
<g clip-path="url(#clip0)">
<path d="M23.216 9.21601L21.667 -0.0809937L18.469 3.11701C16.599 1.75001 14.356 1.00001 12 1.00001C5.935 1.00001 1 5.93501 1 12C1 18.065 5.935 23 12 23C16.374 23 20.332 20.41 22.084 16.401C22.305 15.895 22.074 15.305 21.568 15.084C21.063 14.865 20.473 15.094 20.251 15.6C18.818 18.88 15.579 21 12 21C7.038 21 3 16.962 3 12C3 7.03801 7.038 3.00001 12 3.00001C13.821 3.00001 15.562 3.54401 17.039 4.54701L13.919 7.66701L23.216 9.21601Z" fill="currentColor"/>
</g>
<defs>
<clipPath id="clip0">
<rect width="24" height="24" fill="white"/>
</clipPath>
</defs>
</svg>
