<svg version="1.1" xmlns="http://www.w3.org/2000/svg" xmlns:xlink="http://www.w3.org/1999/xlink" x="0px" y="0px" viewBox="0 0 244.751 244.751" style="enable-background:new 0 0 244.751 244.751;" xml:space="preserve">
	<path fill="currentColor" d="M93.972,58.443c0-18.936-13.245-34.825-30.955-38.92V9c0-4.971-4.029-9-9-9s-9,4.029-9,9v10.523
		c-17.709,4.094-30.955,19.984-30.955,38.92s13.245,34.825,30.955,38.92v138.388c0,4.971,4.029,9,9,9s9-4.029,9-9V97.363
		C80.727,93.268,93.972,77.379,93.972,58.443z M32.063,58.443c0-12.106,9.849-21.955,21.955-21.955s21.955,9.849,21.955,21.955
		s-9.849,21.955-21.955,21.955S32.063,70.549,32.063,58.443z"/>
	<path fill="currentColor" d="M131.375,120.91V9c0-4.971-4.029-9-9-9s-9,4.029-9,9v111.91c-17.709,4.094-30.955,19.984-30.955,38.92
		s13.245,34.825,30.955,38.92v37.001c0,4.971,4.029,9,9,9s9-4.029,9-9V198.75c17.709-4.094,30.955-19.984,30.955-38.92
		S149.085,125.005,131.375,120.91z M100.421,159.83c0-12.106,9.849-21.955,21.955-21.955s21.955,9.849,21.955,21.955
		s-9.849,21.955-21.955,21.955S100.421,171.936,100.421,159.83z"/>
	<path fill="currentColor" d="M230.688,97.921c0-18.936-13.245-34.825-30.955-38.92V9c0-4.971-4.029-9-9-9s-9,4.029-9,9v50.001
		c-17.709,4.094-30.955,19.984-30.955,38.92s13.245,34.825,30.955,38.92v98.91c0,4.971,4.029,9,9,9s9-4.029,9-9v-98.91
		C217.443,132.746,230.688,116.857,230.688,97.921z M168.779,97.921c0-12.106,9.849-21.955,21.955-21.955
		s21.955,9.849,21.955,21.955s-9.849,21.955-21.955,21.955S168.779,110.027,168.779,97.921z"/>
</svg>
