<svg width="24" height="24" viewBox="0 0 24 24" fill="none" xmlns="http://www.w3.org/2000/svg">
<path d="M24 14V10L20.662 9.583C20.4687 8.88533 20.1913 8.21374 19.836 7.583L21.9 4.929L19.071 2.1L16.418 4.164C15.7873 3.80865 15.1157 3.53128 14.418 3.338L14 0H10L9.583 3.338C8.88533 3.53128 8.21374 3.80865 7.583 4.164L4.929 2.1L2.1 4.929L4.164 7.582C3.80865 8.21274 3.53128 8.88433 3.338 9.582L0 10V14L3.338 14.417C3.53128 15.1147 3.80865 15.7863 4.164 16.417L2.1 19.071L4.929 21.9L7.582 19.837C8.21274 20.1923 8.88433 20.4697 9.582 20.663L10 24H14L14.417 20.662C15.1147 20.4687 15.7863 20.1913 16.417 19.836L19.071 21.9L21.9 19.071L19.837 16.418C20.1923 15.7873 20.4697 15.1157 20.663 14.418L24 14ZM12 16C11.2089 16 10.4355 15.7654 9.77772 15.3259C9.11992 14.8864 8.60723 14.2616 8.30448 13.5307C8.00173 12.7998 7.92252 11.9956 8.07686 11.2196C8.2312 10.4437 8.61216 9.73098 9.17157 9.17157C9.73098 8.61216 10.4437 8.2312 11.2196 8.07686C11.9956 7.92252 12.7998 8.00173 13.5307 8.30448C14.2616 8.60723 14.8864 9.11992 15.3259 9.77772C15.7654 10.4355 16 11.2089 16 12C16 13.0609 15.5786 14.0783 14.8284 14.8284C14.0783 15.5786 13.0609 16 12 16Z" fill="currentColor"/>
</svg>
