<svg width="24" height="24" viewBox="0 0 24 24" fill="none" xmlns="http://www.w3.org/2000/svg">
<path d="M3 11H0V13H3V11Z" fill="currentColor"/>
<path d="M4.22133 2.80745L2.80713 4.22165L4.92843 6.34295L6.34263 4.92875L4.22133 2.80745Z" fill="currentColor"/>
<path d="M13 0H11V3H13V0Z" fill="currentColor"/>
<path d="M19.7782 2.80732L17.6569 4.92862L19.0711 6.34282L21.1924 4.22152L19.7782 2.80732Z" fill="currentColor"/>
<path d="M24 11H21V13H24V11Z" fill="currentColor"/>
<path d="M19.0713 17.6571L17.6571 19.0713L19.7784 21.1926L21.1926 19.7784L19.0713 17.6571Z" fill="currentColor"/>
<path d="M13 21H11V24H13V21Z" fill="currentColor"/>
<path d="M4.92855 17.6572L2.80725 19.7785L4.22145 21.1927L6.34275 19.0714L4.92855 17.6572Z" fill="currentColor"/>
<path d="M12 19C15.866 19 19 15.866 19 12C19 8.13401 15.866 5 12 5C8.13401 5 5 8.13401 5 12C5 15.866 8.13401 19 12 19Z" fill="currentColor"/>
</svg>
