<svg width="25" height="24" viewBox="0 0 25 24" fill="none" xmlns="http://www.w3.org/2000/svg">
<path d="M18.2733 0C15.2063 0 12.6353 2.138 11.9553 5H8.77332L12.7733 10L16.7733 5H14.0493C14.6703 3.258 16.3203 2 18.2733 2C20.7543 2 22.7733 4.019 22.7733 6.5C22.7733 8.981 20.7543 11 18.2733 11H7.27332C3.68932 11 0.773315 13.916 0.773315 17.5C0.773315 21.084 3.68932 24 7.27332 24C10.3403 24 12.9113 21.862 13.5913 19H16.7733L12.7733 14L8.77332 19H11.4973C10.8763 20.742 9.22632 22 7.27332 22C4.79232 22 2.77332 19.981 2.77332 17.5C2.77332 15.019 4.79232 13 7.27332 13H18.2733C21.8573 13 24.7733 10.084 24.7733 6.5C24.7733 2.916 21.8573 0 18.2733 0Z" fill="black"/>
</svg>
